<svg width="20" height="19" viewBox="0 0 20 19" fill="none" xmlns="http://www.w3.org/2000/svg">
<path d="M2.66687 12.6667H17.3335V2.58333H2.66687V12.6667ZM10.9169 14.5V16.3333H14.5835V18.1667H5.41687V16.3333H9.08353V14.5H1.74287C1.6225 14.4993 1.50345 14.4748 1.39255 14.428C1.28165 14.3812 1.18108 14.3129 1.09661 14.2272C1.01213 14.1414 0.945411 14.0399 0.900267 13.9283C0.855124 13.8167 0.832446 13.6973 0.833533 13.5769V1.67308C0.833533 1.16342 1.25062 0.75 1.74287 0.75H18.2575C18.7599 0.75 19.1669 1.16158 19.1669 1.67308V13.5769C19.1669 14.0866 18.7498 14.5 18.2575 14.5H10.9169Z" fill="#FF4C51"/>
</svg>
