<svg width="43" height="42" viewBox="0 0 43 42" fill="none" xmlns="http://www.w3.org/2000/svg">
<path d="M0.333496 6C0.333496 2.68629 3.01979 0 6.3335 0H36.3335C39.6472 0 42.3335 2.68629 42.3335 6V36C42.3335 39.3137 39.6472 42 36.3335 42H6.3335C3.01979 42 0.333496 39.3137 0.333496 36V6Z" fill="#8C57FF" fill-opacity="0.16"/>
<path d="M10.5 31.8334C10.5 29.5348 11.4131 27.3304 13.0384 25.7051C14.6637 24.0798 16.8681 23.1667 19.1667 23.1667C21.4652 23.1667 23.6696 24.0798 25.2949 25.7051C26.9202 27.3304 27.8333 29.5348 27.8333 31.8334H25.6667C25.6667 30.1095 24.9818 28.4562 23.7629 27.2372C22.5439 26.0182 20.8906 25.3334 19.1667 25.3334C17.4428 25.3334 15.7895 26.0182 14.5705 27.2372C13.3515 28.4562 12.6667 30.1095 12.6667 31.8334H10.5ZM19.1667 22.0834C15.5754 22.0834 12.6667 19.1746 12.6667 15.5834C12.6667 11.9921 15.5754 9.08337 19.1667 9.08337C22.7579 9.08337 25.6667 11.9921 25.6667 15.5834C25.6667 19.1746 22.7579 22.0834 19.1667 22.0834ZM19.1667 19.9167C21.5608 19.9167 23.5 17.9775 23.5 15.5834C23.5 13.1892 21.5608 11.25 19.1667 11.25C16.7725 11.25 14.8333 13.1892 14.8333 15.5834C14.8333 17.9775 16.7725 19.9167 19.1667 19.9167ZM28.141 23.9283C29.6634 24.614 30.9555 25.7247 31.8618 27.1271C32.7681 28.5294 33.2502 30.1636 33.25 31.8334H31.0833C31.0836 30.581 30.7221 29.3552 30.0423 28.3034C29.3626 27.2516 28.3935 26.4185 27.2516 25.9043L28.1399 23.9283H28.141ZM27.3957 11.6975C28.4872 12.1474 29.4204 12.9114 30.0769 13.8925C30.7335 14.8737 31.0838 16.0278 31.0833 17.2084C31.0838 18.6951 30.5283 20.1282 29.5261 21.2263C28.5238 22.3243 27.1472 23.008 25.6667 23.1429V20.9621C26.4694 20.8472 27.214 20.4779 27.7914 19.9085C28.3688 19.3392 28.7484 18.5997 28.8746 17.7987C29.0008 16.9977 28.8668 16.1774 28.4924 15.4581C28.118 14.7388 27.5229 14.1585 26.7944 13.8024L27.3957 11.6975Z" fill="#8C57FF"/>
</svg>
