<svg width="16" height="21" viewBox="0 0 16 21" fill="none" xmlns="http://www.w3.org/2000/svg">
<path d="M15.3332 20.1667H13.4998V18.3333C13.4998 17.604 13.2101 16.9045 12.6944 16.3888C12.1787 15.8731 11.4792 15.5833 10.7498 15.5833H5.24984C4.52049 15.5833 3.82102 15.8731 3.30529 16.3888C2.78957 16.9045 2.49984 17.604 2.49984 18.3333V20.1667H0.666504V18.3333C0.666504 17.1177 1.14939 15.952 2.00893 15.0924C2.86847 14.2329 4.03426 13.75 5.24984 13.75H10.7498C11.9654 13.75 13.1312 14.2329 13.9907 15.0924C14.8503 15.952 15.3332 17.1177 15.3332 18.3333V20.1667ZM7.99984 11.9167C7.27757 11.9167 6.56237 11.7744 5.89508 11.498C5.22779 11.2216 4.62147 10.8165 4.11075 10.3057C3.60003 9.79502 3.1949 9.18871 2.9185 8.52142C2.6421 7.85413 2.49984 7.13893 2.49984 6.41666C2.49984 5.69439 2.6421 4.97919 2.9185 4.3119C3.1949 3.64461 3.60003 3.03829 4.11075 2.52757C4.62147 2.01685 5.22779 1.61172 5.89508 1.33532C6.56237 1.05892 7.27757 0.916656 7.99984 0.916656C9.45853 0.916657 10.8575 1.49612 11.8889 2.52757C12.9204 3.55902 13.4998 4.95797 13.4998 6.41666C13.4998 7.87535 12.9204 9.27429 11.8889 10.3057C10.8575 11.3372 9.45853 11.9167 7.99984 11.9167ZM7.99984 10.0833C8.9723 10.0833 9.90493 9.69701 10.5926 9.00938C11.2802 8.32175 11.6665 7.38912 11.6665 6.41666C11.6665 5.4442 11.2802 4.51156 10.5926 3.82393C9.90493 3.1363 8.9723 2.74999 7.99984 2.74999C7.02738 2.74999 6.09475 3.1363 5.40711 3.82393C4.71948 4.51156 4.33317 5.4442 4.33317 6.41666C4.33317 7.38912 4.71948 8.32175 5.40711 9.00938C6.09475 9.69701 7.02738 10.0833 7.99984 10.0833Z" fill="#56CA00"/>
</svg>
