<svg width="42" height="42" viewBox="0 0 42 42" fill="none" xmlns="http://www.w3.org/2000/svg">
<path d="M0 6C0 2.68629 2.68629 0 6 0H36C39.3137 0 42 2.68629 42 6V36C42 39.3137 39.3137 42 36 42H6C2.68629 42 0 39.3137 0 36V6Z" fill="#56CA00" fill-opacity="0.16"/>
<path d="M23.1668 23.4397V25.7039C22.1863 25.3572 21.137 25.2509 20.1069 25.3938C19.0767 25.5367 18.096 25.9248 17.2469 26.5253C16.3978 27.1258 15.7052 27.9213 15.2273 28.8449C14.7493 29.7686 14.5 30.7934 14.5002 31.8334L12.3335 31.8323C12.3332 30.5094 12.6357 29.204 13.2178 28.0161C13.8 26.8282 14.6463 25.7894 15.6921 24.9792C16.7378 24.1689 17.9551 23.6089 19.2507 23.3418C20.5464 23.0748 21.886 23.1079 23.1668 23.4386V23.4397ZM21.0002 22.0834C17.4089 22.0834 14.5002 19.1746 14.5002 15.5834C14.5002 11.9921 17.4089 9.08337 21.0002 9.08337C24.5914 9.08337 27.5002 11.9921 27.5002 15.5834C27.5002 19.1746 24.5914 22.0834 21.0002 22.0834ZM21.0002 19.9167C23.3943 19.9167 25.3335 17.9775 25.3335 15.5834C25.3335 13.1892 23.3943 11.25 21.0002 11.25C18.606 11.25 16.6668 13.1892 16.6668 15.5834C16.6668 17.9775 18.606 19.9167 21.0002 19.9167ZM27.2759 29.5735L31.1055 25.744L32.6384 27.2758L27.2759 32.6383L23.4452 28.8076L24.9782 27.2758L27.2748 29.5735H27.2759Z" fill="#56CA00"/>
</svg>
