<svg width="43" height="42" viewBox="0 0 43 42" fill="none" xmlns="http://www.w3.org/2000/svg">
<path d="M0.666992 6C0.666992 2.68629 3.35328 0 6.66699 0H36.667C39.9807 0 42.667 2.68629 42.667 6V36C42.667 39.3137 39.9807 42 36.667 42H6.66699C3.35328 42 0.666992 39.3137 0.666992 36V6Z" fill="#FF4C51" fill-opacity="0.16"/>
<path d="M23.8338 23.4397V25.7039C22.8533 25.3572 21.804 25.2509 20.7738 25.3938C19.7437 25.5367 18.763 25.9248 17.9139 26.5253C17.0648 27.1258 16.3722 27.9213 15.8942 28.8449C15.4163 29.7686 15.167 30.7934 15.1672 31.8334L13.0005 31.8323C13.0002 30.5094 13.3027 29.204 13.8848 28.0161C14.467 26.8282 15.3133 25.7894 16.3591 24.9792C17.4048 24.1689 18.6221 23.6089 19.9177 23.3418C21.2134 23.0748 22.553 23.1079 23.8338 23.4386V23.4397ZM21.6672 22.0834C18.0759 22.0834 15.1672 19.1746 15.1672 15.5834C15.1672 11.9921 18.0759 9.08337 21.6672 9.08337C25.2584 9.08337 28.1672 11.9921 28.1672 15.5834C28.1672 19.1746 25.2584 22.0834 21.6672 22.0834ZM21.6672 19.9167C24.0613 19.9167 26.0005 17.9775 26.0005 15.5834C26.0005 13.1892 24.0613 11.25 21.6672 11.25C19.273 11.25 17.3338 13.1892 17.3338 15.5834C17.3338 17.9775 19.273 19.9167 21.6672 19.9167ZM28.1672 26.4167V23.1667H30.3338V26.4167H33.5838V28.5834H30.3338V31.8334H28.1672V28.5834H24.9172V26.4167H28.1672Z" fill="#FF4C51"/>
</svg>
