<svg width="21" height="21" viewBox="0 0 21 21" fill="none" xmlns="http://www.w3.org/2000/svg">
<path d="M9.0835 0.49773C9.386 0.471146 9.69125 0.458313 10.0002 0.458313C15.8219 0.458313 20.5418 5.17823 20.5418 11C20.5418 11.3089 20.529 11.6141 20.5024 11.9166H19.1219C18.6617 16.5486 14.7531 20.1666 10.0002 20.1666C4.93741 20.1666 0.833496 16.0627 0.833496 11C0.833496 6.24706 4.45158 2.3384 9.0835 1.87915V0.496813V0.49773ZM9.0835 11.9166V3.72348C7.23432 3.95877 5.54411 4.88936 4.35642 6.3261C3.16873 7.76283 2.57267 9.59791 2.6894 11.4583C2.80613 13.3188 3.62688 15.0649 4.98485 16.342C6.34281 17.619 8.13607 18.331 10.0002 18.3333C11.7864 18.3333 13.5112 17.6814 14.8509 16.5C16.1907 15.3186 17.0532 13.6888 17.2767 11.9166H9.0835ZM18.6608 10.0833C18.4507 8.10139 17.5673 6.25146 16.158 4.84217C14.7487 3.43288 12.8988 2.54946 10.9168 2.33931V10.0833H18.6608Z" fill="#16B1FF"/>
</svg>
