<svg width="246" height="185" viewBox="0 0 246 185" fill="none" xmlns="http://www.w3.org/2000/svg">
<ellipse opacity="0.68" cx="93.99" cy="38.8717" rx="33.99" ry="33.8717" fill="#8C57FF"/>
<path opacity="0.68" d="M93.9904 71.6578C75.7971 71.6578 61.0898 56.8932 61.0898 38.8717C61.0898 20.7417 75.906 6.08563 93.9904 6.08563C112.184 6.08563 126.891 20.8502 126.891 38.8717C126.891 57.0017 112.075 71.6578 93.9904 71.6578Z" fill="url(#paint0_linear_9040_23122)"/>
<path d="M100.666 36.1651C100.25 35.7268 99.6265 35.7268 99.2106 36.1651L95.6755 39.89V24.9903C95.6755 24.3329 95.2596 23.8947 94.6357 23.8947C94.0119 23.8947 93.596 24.3329 93.596 24.9903V54.3515L87.8773 48.3259C87.4614 47.8877 86.8376 47.8877 86.4217 48.3259C86.0058 48.7641 86.0058 49.4215 86.4217 49.8597L93.596 57.4191V95.6544C93.596 96.3118 94.0119 96.75 94.6357 96.75C95.2596 96.75 95.6755 96.3118 95.6755 95.6544V42.9576L100.666 37.6989C101.082 37.2606 101.082 36.6033 100.666 36.1651Z" fill="#8C57FF"/>
<rect x="83.1362" y="89.3158" width="23.7895" height="35.6842" fill="#C6C2D6"/>
<ellipse opacity="0.68" cx="157.808" cy="74.7585" rx="19.8275" ry="19.7585" fill="#8C57FF"/>
<path opacity="0.68" d="M157.808 93.8838C147.195 93.8838 138.616 85.2711 138.616 74.7586C138.616 64.1827 147.259 55.6334 157.808 55.6334C168.421 55.6334 177 64.2461 177 74.7586C177 85.3344 168.357 93.8838 157.808 93.8838Z" fill="url(#paint1_linear_9040_23122)"/>
<path d="M161.702 73.1796C161.46 72.924 161.096 72.924 160.853 73.1796L158.791 75.3525V66.661C158.791 66.2775 158.548 66.0219 158.185 66.0219C157.821 66.0219 157.578 66.2775 157.578 66.661V83.7883L154.242 80.2734C154 80.0178 153.636 80.0178 153.393 80.2734C153.15 80.529 153.15 80.9125 153.393 81.1681L157.578 85.5778V107.882C157.578 108.265 157.821 108.521 158.185 108.521C158.548 108.521 158.791 108.265 158.791 107.882V77.1419L161.702 74.0743C161.945 73.8187 161.945 73.4352 161.702 73.1796Z" fill="#8C57FF"/>
<rect x="151.476" y="104.184" width="13.8772" height="20.8158" fill="#C6C2D6"/>
<defs>
<linearGradient id="paint0_linear_9040_23122" x1="126.891" y1="38.8717" x2="61.0898" y2="38.8717" gradientUnits="userSpaceOnUse">
<stop stop-color="#9155FD"/>
<stop offset="1" stop-color="#C6A7FE"/>
</linearGradient>
<linearGradient id="paint1_linear_9040_23122" x1="177" y1="74.7586" x2="138.616" y2="74.7586" gradientUnits="userSpaceOnUse">
<stop stop-color="#9155FD"/>
<stop offset="1" stop-color="#C6A7FE"/>
</linearGradient>
</defs>
</svg>
