<svg width="98" height="210" viewBox="0 0 98 210" fill="none" xmlns="http://www.w3.org/2000/svg">
<path opacity="0.607474" d="M15.072 0.971423C-26.0105 86.6152 30.8363 144.504 41.0273 153.861C41.8235 154.496 43.0973 154.337 43.575 153.386C50.1037 141.173 84.6576 67.9005 17.779 0.495624C16.8236 -0.297374 15.5497 -0.138775 15.072 0.971423Z" fill="#8C57FF"/>
<path opacity="0.607474" d="M42.1413 152.593C37.5235 148.311 23.3517 134.037 13.1606 111.833C2.17345 87.7255 -6.10675 49.0272 16.5046 1.6059C53.7655 39.0354 58.5425 78.2095 55.9948 104.696C53.7655 128.961 45.0076 147.2 42.1413 152.593Z" fill="url(#paint0_linear_9040_23137)"/>
<path d="M37.2053 113.736L45.9632 101.523C46.4409 100.73 46.2816 99.7789 45.6447 99.3031C44.8485 98.8273 43.8931 98.9859 43.4154 99.6203L36.5683 109.295L32.4282 84.7119L27.3327 54.7366L32.1098 48.0754C32.5875 47.441 32.4282 46.3308 31.7913 45.855C30.9951 45.3792 30.0397 45.5378 29.562 46.1722L26.6958 50.1372L21.9187 22.0651C21.7595 21.2721 20.9633 20.6377 20.0079 20.7963C19.2117 20.9549 18.5748 21.7479 18.734 22.6995L24.148 54.578L28.7658 81.3813L17.4602 73.2927C16.664 72.8169 15.7086 72.9755 15.2309 73.6099C14.7532 74.4029 14.9124 75.3545 15.5494 75.8303L29.562 85.6635L34.1798 113.418L46.1224 183.519C46.2816 184.312 46.9186 184.788 47.7148 184.788C47.874 184.788 47.874 184.788 48.0332 184.788C48.8294 184.63 49.4663 183.837 49.3071 182.885L37.2053 113.736Z" fill="#8C57FF"/>
<path d="M92.7509 72.8204C43.7053 106.45 56.4507 155.527 59.0321 163.733C59.1934 164.377 60.0001 164.698 60.4841 164.216C67.7441 159.549 109.53 130.586 94.3642 73.3031C94.2029 72.8204 93.3962 72.4986 92.7509 72.8204Z" fill="#8C57FF"/>
<path d="M60.0004 163.572C58.8711 159.871 55.6444 147.642 57.0964 132.356C58.7097 115.783 66.2924 92.2902 93.3966 73.6249C101.786 105.485 92.2672 128.333 82.5872 141.85C73.7138 154.239 63.2271 161.48 60.0004 163.572Z" fill="url(#paint1_linear_9040_23137)"/>
<path d="M89.0389 85.2101C88.5549 85.0492 87.9096 85.2101 87.7482 85.8538L80.6495 104.841L74.6802 120.771L71.1308 112.886C70.9695 112.403 70.3241 112.243 69.8401 112.403C69.3561 112.564 69.1948 113.208 69.3561 113.691L73.8735 123.345L67.7428 139.758L52.2547 181.433C52.0934 181.915 52.2547 182.559 52.9001 182.72C53.0614 182.72 53.0614 182.72 53.2227 182.72C53.7067 182.72 54.0294 182.398 54.1907 182.076L69.5175 140.723L78.0682 136.861C78.5522 136.7 78.7135 136.057 78.5522 135.574C78.3908 135.091 77.7455 134.93 77.2615 135.091L70.4855 138.149L75.9708 123.506L82.5855 105.645L87.2642 103.554C87.7482 103.393 87.9096 102.749 87.7482 102.266C87.5869 101.784 86.9416 101.623 86.4576 101.784L83.7149 103.071L89.8456 86.3365C89.8456 86.0147 89.5229 85.532 89.0389 85.2101Z" fill="#8C57FF"/>
<rect x="34.2817" y="177.076" width="29.4584" height="32.9241" fill="#C6C2D6"/>
<defs>
<linearGradient id="paint0_linear_9040_23137" x1="56.5651" y1="77.0993" x2="2.1665" y2="77.0993" gradientUnits="userSpaceOnUse">
<stop stop-color="#9155FD"/>
<stop offset="1" stop-color="#C6A7FE"/>
</linearGradient>
<linearGradient id="paint1_linear_9040_23137" x1="96.6248" y1="118.598" x2="56.7275" y2="118.598" gradientUnits="userSpaceOnUse">
<stop stop-color="#9155FD"/>
<stop offset="1" stop-color="#C6A7FE"/>
</linearGradient>
</defs>
</svg>
