<svg width="29" height="22" viewBox="0 0 29 22" fill="none" xmlns="http://www.w3.org/2000/svg">
<path fill-rule="evenodd" clip-rule="evenodd" d="M1.38591 0.141343L6.38352 3.22731C6.65167 3.39289 6.81493 3.68563 6.81493 4.00089V18.0987C6.81493 18.4185 6.64707 18.7147 6.37285 18.8788L1.37524 21.8707C0.94461 22.1285 0.386623 21.9882 0.128938 21.5574C0.0445607 21.4164 0 21.255 0 21.0906V0.914925C0 0.412862 0.40682 0.00585938 0.908658 0.00585938C1.07722 0.00585938 1.24246 0.0527689 1.38591 0.141343Z" fill="#8C57FF"/>
<path opacity="0.077704" fill-rule="evenodd" clip-rule="evenodd" d="M0 7.35376L6.81493 11.2632V15.0959L0 7.35376Z" fill="black"/>
<path opacity="0.077704" fill-rule="evenodd" clip-rule="evenodd" d="M0 7.35376L6.81493 11.1637V13.505L0 7.35376Z" fill="black"/>
<path fill-rule="evenodd" clip-rule="evenodd" d="M26.7836 0.137942L21.786 3.21357C21.5172 3.379 21.3534 3.67212 21.3534 3.98786V18.0989C21.3534 18.4186 21.5213 18.7148 21.7955 18.879L26.7931 21.8709C27.2237 22.1287 27.7817 21.9884 28.0394 21.5576C28.1238 21.4165 28.1683 21.2552 28.1683 21.0908V0.91224C28.1683 0.410177 27.7615 0.00317383 27.2597 0.00317383C27.0916 0.00317383 26.9268 0.0498263 26.7836 0.137942Z" fill="#8C57FF"/>
<path opacity="0.077704" fill-rule="evenodd" clip-rule="evenodd" d="M28.1683 7.35376L21.3534 11.255V15.2116L28.1683 7.35376Z" fill="black"/>
<path opacity="0.077704" fill-rule="evenodd" clip-rule="evenodd" d="M28.1683 7.35376L21.3534 11.1603V13.6207L28.1683 7.35376Z" fill="black"/>
<path fill-rule="evenodd" clip-rule="evenodd" d="M1.38349 0.133995L14.0842 7.9218V15.4216L0 7.35155V0.909066C0 0.407003 0.40682 0 0.908657 0C1.07626 0 1.24059 0.0463746 1.38349 0.133995Z" fill="#8C57FF"/>
<path fill-rule="evenodd" clip-rule="evenodd" d="M1.38349 0.133995L14.0842 7.9218V15.4216L0 7.35155V0.909066C0 0.407003 0.40682 0 0.908657 0C1.07626 0 1.24059 0.0463746 1.38349 0.133995Z" fill="white" fill-opacity="0.15"/>
<path fill-rule="evenodd" clip-rule="evenodd" d="M26.7848 0.133995L14.0841 7.9218V15.4216L28.1683 7.35155V0.909066C28.1683 0.407003 27.7615 0 27.2597 0C27.0921 0 26.9277 0.0463746 26.7848 0.133995Z" fill="#8C57FF"/>
<path fill-rule="evenodd" clip-rule="evenodd" d="M26.7848 0.133995L14.0841 7.9218V15.4216L28.1683 7.35155V0.909066C28.1683 0.407003 27.7615 0 27.2597 0C27.0921 0 26.9277 0.0463746 26.7848 0.133995Z" fill="white" fill-opacity="0.3"/>
</svg>
