<svg width="25" height="24" viewBox="0 0 25 24" fill="none" xmlns="http://www.w3.org/2000/svg">
<path d="M4.5 16V4H2.5V2H5.5C5.76522 2 6.01957 2.10536 6.20711 2.29289C6.39464 2.48043 6.5 2.73478 6.5 3V15H18.938L20.938 7H8.5V5H22.22C22.372 5 22.522 5.03466 22.6586 5.10134C22.7952 5.16801 22.9148 5.26495 23.0083 5.38479C23.1019 5.50462 23.1668 5.6442 23.1983 5.79291C23.2298 5.94162 23.2269 6.09555 23.19 6.243L20.69 16.243C20.6358 16.4592 20.511 16.6512 20.3352 16.7883C20.1595 16.9255 19.9429 17 19.72 17H5.5C5.23478 17 4.98043 16.8946 4.79289 16.7071C4.60536 16.5196 4.5 16.2652 4.5 16ZM6.5 23C5.96957 23 5.46086 22.7893 5.08579 22.4142C4.71071 22.0391 4.5 21.5304 4.5 21C4.5 20.4696 4.71071 19.9609 5.08579 19.5858C5.46086 19.2107 5.96957 19 6.5 19C7.03043 19 7.53914 19.2107 7.91421 19.5858C8.28929 19.9609 8.5 20.4696 8.5 21C8.5 21.5304 8.28929 22.0391 7.91421 22.4142C7.53914 22.7893 7.03043 23 6.5 23ZM18.5 23C17.9696 23 17.4609 22.7893 17.0858 22.4142C16.7107 22.0391 16.5 21.5304 16.5 21C16.5 20.4696 16.7107 19.9609 17.0858 19.5858C17.4609 19.2107 17.9696 19 18.5 19C19.0304 19 19.5391 19.2107 19.9142 19.5858C20.2893 19.9609 20.5 20.4696 20.5 21C20.5 21.5304 20.2893 22.0391 19.9142 22.4142C19.5391 22.7893 19.0304 23 18.5 23Z" fill="#8C57FF"/>
</svg>
