<svg width="30" height="24" viewBox="0 0 30 24" fill="none" xmlns="http://www.w3.org/2000/svg">
<path fill-rule="evenodd" clip-rule="evenodd" d="M1.47602 0.4354L6.7986 3.72202C7.08419 3.89837 7.25807 4.21016 7.25807 4.54591V19.5605C7.25807 19.901 7.07929 20.2164 6.78724 20.3913L1.46466 23.5777C1.00603 23.8523 0.411763 23.7029 0.137322 23.244C0.0474583 23.0938 0 22.922 0 22.7469V1.25928C0 0.724575 0.433273 0.291107 0.967742 0.291107C1.14727 0.291107 1.32325 0.341067 1.47602 0.4354Z" fill="#9155FD"/>
<path opacity="0.077704" fill-rule="evenodd" clip-rule="evenodd" d="M0 8.11655L7.25807 12.2802V16.3621L0 8.11655Z" fill="black"/>
<path opacity="0.077704" fill-rule="evenodd" clip-rule="evenodd" d="M0 8.11655L7.25807 12.1742V14.6678L0 8.11655Z" fill="black"/>
<path fill-rule="evenodd" clip-rule="evenodd" d="M28.5252 0.431587L23.2026 3.7072C22.9163 3.88339 22.7419 4.19558 22.7419 4.53185V19.5605C22.7419 19.901 22.9207 20.2164 23.2128 20.3913L28.5353 23.5777C28.994 23.8523 29.5882 23.7029 29.8627 23.2441C29.9525 23.0938 30 22.922 30 22.7469V1.25623C30 0.721523 29.5667 0.288055 29.0323 0.288055C28.8532 0.288055 28.6777 0.337741 28.5252 0.431587Z" fill="#9155FD"/>
<path opacity="0.077704" fill-rule="evenodd" clip-rule="evenodd" d="M30 8.11655L22.7419 12.2714V16.4853L30 8.11655Z" fill="black"/>
<path opacity="0.077704" fill-rule="evenodd" clip-rule="evenodd" d="M30 8.11655L22.7419 12.1706V14.791L30 8.11655Z" fill="black"/>
<path fill-rule="evenodd" clip-rule="evenodd" d="M1.47345 0.427468L15 8.72166V16.7091L0 8.11433V1.25294C0 0.718227 0.433273 0.28476 0.967742 0.28476C1.14624 0.28476 1.32126 0.33415 1.47345 0.427468Z" fill="#9E69FD"/>
<path fill-rule="evenodd" clip-rule="evenodd" d="M28.5266 0.427468L15 8.72166V16.7091L30 8.11433V1.25294C30 0.718227 29.5667 0.28476 29.0323 0.28476C28.8538 0.28476 28.6787 0.33415 28.5266 0.427468Z" fill="#B992FE"/>
</svg>
