<svg width="23" height="23" viewBox="0 0 23 23" fill="none" xmlns="http://www.w3.org/2000/svg">
<path d="M11.4999 0.5L15.7259 6.683L22.9129 8.792L18.3379 14.722L18.5529 22.208L11.4999 19.69L4.44691 22.208L4.66191 14.722L0.0869141 8.792L7.27391 6.683L11.4999 0.5ZM11.4999 4.044L8.52191 8.402L3.45691 9.887L6.68191 14.065L6.52891 19.34L11.4999 17.566L16.4699 19.34L16.3179 14.065L19.5419 9.887L14.4779 8.402L11.4999 4.044ZM9.49991 12C9.49991 12.5304 9.71063 13.0391 10.0857 13.4142C10.4608 13.7893 10.9695 14 11.4999 14C12.0303 14 12.5391 13.7893 12.9141 13.4142C13.2892 13.0391 13.4999 12.5304 13.4999 12H15.4999C15.4999 13.0609 15.0785 14.0783 14.3283 14.8284C13.5782 15.5786 12.5608 16 11.4999 16C10.439 16 9.42163 15.5786 8.67149 14.8284C7.92134 14.0783 7.49991 13.0609 7.49991 12H9.49991Z" fill="#8C57FF"/>
</svg>
